<?xml version="1.0" standalone="no"?>
<!DOCTYPE svg PUBLIC "-//W3C//DTD SVG 20010904//EN"
 "http://www.w3.org/TR/2001/REC-SVG-20010904/DTD/svg10.dtd">
<svg version="1.0" xmlns="http://www.w3.org/2000/svg"
 width="1000.000000pt" height="250.000000pt" viewBox="0 0 1000.000000 250.000000"
 preserveAspectRatio="xMidYMid meet">

<g transform="translate(0.000000,250.000000) scale(0.100000,-0.100000)"
fill="#D2FDFF" stroke="none">
<path d="M409 1784 c-27 -8 -31 -86 -23 -471 l7 -363 206 0 c113 0 223 5 243
10 59 17 130 71 163 124 26 43 30 58 30 122 -1 61 -5 78 -28 113 -15 22 -46
53 -70 68 -23 15 -44 28 -46 29 -2 2 13 17 32 34 43 37 61 87 54 147 -8 72
-84 152 -166 172 -40 10 -376 22 -402 15z m394 -175 c36 -39 37 -86 1 -120
-24 -22 -35 -24 -145 -27 l-119 -4 0 95 0 94 118 -4 c114 -5 118 -5 145 -34z
m17 -294 c42 -22 60 -53 60 -106 0 -42 -4 -51 -39 -82 -46 -42 -102 -53 -221
-42 l-80 7 0 119 0 119 125 0 c92 0 134 -4 155 -15z"/>
<path d="M1266 1779 c-14 -44 -16 -161 -10 -476 l7 -353 269 0 268 0 0 65 0
65 -194 0 -194 0 -4 344 c-1 189 -6 348 -11 352 -4 4 -34 10 -67 12 -45 3 -61
1 -64 -9z"/>
<path d="M1985 1780 c-13 -21 -18 -357 -7 -485 11 -143 31 -194 105 -266 66
-65 131 -89 242 -89 152 0 254 60 317 188 l33 67 0 286 c0 158 -3 290 -7 294
-10 10 -84 18 -111 11 l-24 -6 -6 -274 c-5 -250 -7 -278 -26 -314 -34 -66 -82
-96 -161 -100 -47 -3 -76 1 -96 11 -37 19 -83 65 -97 97 -7 15 -14 130 -17
297 -3 149 -8 275 -13 279 -14 14 -124 17 -132 4z"/>
<path d="M2979 1783 l-47 -4 -7 -187 c-8 -200 -2 -613 9 -631 5 -8 101 -11
315 -11 l309 0 4 31 c3 16 2 47 -1 67 l-6 37 -238 3 -237 2 0 85 0 85 138 1
c75 0 160 4 187 7 l50 7 0 60 0 60 -45 7 c-25 3 -109 7 -187 7 l-143 1 0 115
0 115 234 0 234 0 3 28 c2 15 2 45 -1 67 -5 37 -7 40 -45 47 -40 7 -440 8
-526 1z"/>
<path d="M3795 1088 c-54 -29 -60 -84 -16 -129 39 -38 74 -38 113 1 25 26 29
36 24 63 -11 60 -72 92 -121 65z"/>
</g>
</svg>
